<?xml version="1.0" encoding="UTF-8" standalone="no"?>
<svg
   xmlns:dc="http://purl.org/dc/elements/1.1/"
   xmlns:cc="http://creativecommons.org/ns#"
   xmlns:rdf="http://www.w3.org/1999/02/22-rdf-syntax-ns#"
   xmlns:svg="http://www.w3.org/2000/svg"
   xmlns="http://www.w3.org/2000/svg"
   xmlns:sodipodi="http://sodipodi.sourceforge.net/DTD/sodipodi-0.dtd"
   xmlns:inkscape="http://www.inkscape.org/namespaces/inkscape"
   version="1.1"
   id="Layer_1"
   x="0px"
   y="0px"
   viewBox="0 0 492 492"
   style="enable-background:new 0 0 492 492;"
   xml:space="preserve"
   width="512px"
   height="512px"
   sodipodi:docname="add.svg"
   inkscape:version="0.92.4 (5da689c313, 2019-01-14)"><metadata
   id="metadata15"><rdf:RDF><cc:Work
       rdf:about=""><dc:format>image/svg+xml</dc:format><dc:type
         rdf:resource="http://purl.org/dc/dcmitype/StillImage" /></cc:Work></rdf:RDF></metadata><defs
   id="defs13" /><sodipodi:namedview
   pagecolor="#ffffff"
   bordercolor="#666666"
   borderopacity="1"
   objecttolerance="10"
   gridtolerance="10"
   guidetolerance="10"
   inkscape:pageopacity="0"
   inkscape:pageshadow="2"
   inkscape:window-width="2560"
   inkscape:window-height="1387"
   id="namedview11"
   showgrid="false"
   inkscape:zoom="0.4609375"
   inkscape:cx="-112.81356"
   inkscape:cy="256"
   inkscape:window-x="1912"
   inkscape:window-y="-8"
   inkscape:window-maximized="1"
   inkscape:current-layer="g8" /><g
   id="g8"><g
     id="g6"
     style="fill:#66667d;fill-opacity:1">
	<g
   id="g4"
   style="fill:#66667d;fill-opacity:1">
		<path
   d="M465.064,207.566l0.028,0H284.436V27.25c0-14.84-12.016-27.248-26.856-27.248h-23.116    c-14.836,0-26.904,12.408-26.904,27.248v180.316H26.908c-14.832,0-26.908,12-26.908,26.844v23.248    c0,14.832,12.072,26.78,26.908,26.78h180.656v180.968c0,14.832,12.064,26.592,26.904,26.592h23.116    c14.84,0,26.856-11.764,26.856-26.592V284.438h180.624c14.84,0,26.936-11.952,26.936-26.78V234.41    C492,219.566,479.904,207.566,465.064,207.566z"
   data-original="#000000"
   class="active-path"
   data-old_color="#000000"
   fill="#374957"
   id="path2"
   style="fill:#66667d;fill-opacity:1" />
	</g>
</g></g> </svg>