<?xml version="1.0" encoding="UTF-8" standalone="no"?>
<svg
   xmlns:dc="http://purl.org/dc/elements/1.1/"
   xmlns:cc="http://creativecommons.org/ns#"
   xmlns:rdf="http://www.w3.org/1999/02/22-rdf-syntax-ns#"
   xmlns:svg="http://www.w3.org/2000/svg"
   xmlns="http://www.w3.org/2000/svg"
   xmlns:sodipodi="http://sodipodi.sourceforge.net/DTD/sodipodi-0.dtd"
   xmlns:inkscape="http://www.inkscape.org/namespaces/inkscape"
   height="512pt"
   viewBox="-16 0 511 512"
   width="512pt"
   version="1.1"
   id="svg3757"
   sodipodi:docname="assemblyWatched.svg"
   inkscape:version="0.92.4 (5da689c313, 2019-01-14)">
  <metadata
     id="metadata3763">
    <rdf:RDF>
      <cc:Work
         rdf:about="">
        <dc:format>image/svg+xml</dc:format>
        <dc:type
           rdf:resource="http://purl.org/dc/dcmitype/StillImage" />
      </cc:Work>
    </rdf:RDF>
  </metadata>
  <defs
     id="defs3761" />
  <sodipodi:namedview
     pagecolor="#ffffff"
     bordercolor="#666666"
     borderopacity="1"
     objecttolerance="10"
     gridtolerance="10"
     guidetolerance="10"
     inkscape:pageopacity="0"
     inkscape:pageshadow="2"
     inkscape:window-width="2560"
     inkscape:window-height="1387"
     id="namedview3759"
     showgrid="false"
     inkscape:zoom="1.2616056"
     inkscape:cx="22.343835"
     inkscape:cy="442.16957"
     inkscape:window-x="-8"
     inkscape:window-y="-8"
     inkscape:window-maximized="1"
     inkscape:current-layer="svg3757" />
  <path
     d="m240.21875 0-239.71875 123.703125v264.59375l239 123.703125 239-123.703125v-264.59375zm0 0"
     fill="#a8d3d8"
     id="path3739" />
  <path
     d="m240.21875 0-239.71875 123.703125 239 127.242187 239-127.242187zm0 0"
     fill="#deecf1"
     id="path3741" />
  <path
     d="m240.21875 0-.71875 250.945312 239-127.242187zm0 0"
     fill="#a8d3d8"
     id="path3743" />
  <path
     d="m239.5 250.945312v261.054688l239-123.703125v-264.59375zm0 0"
     fill="#8ebac5"
     id="path3745" />
  <path
     d="m239.5 250.945312-239-127.242187v264.59375l239 123.703125zm0 0"
     fill="#a8d3d8"
     id="path3747" />
  <path
     d="m310.472656 36.738281-239 124.75 112.058594 59.660157 241.632812-125.054688zm0 0"
     fill="#ffe07f"
     id="path3749" />
  <g
     fill="#ffd23a"
     id="g3755">
    <path
       d="m310.472656 36.738281-70.972656 37.046875v118.398438l185.664062-96.089844zm0 0"
       id="path3751" />
    <path
       d="m71.472656 161.488281v116.519531l112.058594 57.996094v-114.855468zm0 0"
       id="path3753" />
  </g>
  <path
     style="fill:#8dd35f;stroke-width:0.56048167"
     d="m 341.34269,508.58829 0.009,-173.92469 129.00881,-68.659 c 70.95485,-37.76245 142.58059,-75.88277 159.16832,-84.71182 l 30.15951,-16.05282 -0.141,176.35057 -0.141,176.35058 -149.64861,77.46357 c -82.30673,42.60497 -153.87323,79.63364 -159.03667,82.28594 l -9.38807,4.82236 z"
     id="path3769"
     inkscape:connector-curvature="0"
     transform="matrix(0.74999998,0,0,0.74999998,-16.5,0)" />
  <path
     style="fill:#b3ff80;stroke-width:0.56048167"
     d="m 181.75364,600.13047 -158.738969,-82.18936 -0.01746,-176.4603 -0.01746,-176.46029 4.063492,2.18643 c 2.234921,1.20253 23.420249,12.48556 47.078507,25.0734 l 43.01501,22.88697 0.14208,77.89509 0.14207,77.89508 74.54406,38.58097 74.54406,38.58097 0.14212,-76.48489 c 0.0782,-42.0667 0.26677,-76.4849 0.41914,-76.4849 0.15237,0 16.92389,8.85966 37.27004,19.68813 l 36.993,19.68813 v 173.95829 c 0,95.67705 -0.18916,173.93069 -0.42036,173.89696 -0.2312,-0.0337 -71.8529,-37.04653 -159.15933,-82.25068 z"
     id="path3771"
     inkscape:connector-curvature="0"
     transform="matrix(0.74999998,0,0,0.74999998,-16.5,0)" />
  <path
     style="fill:#ccffaa;stroke-width:0.56048167"
     d="m 332.64587,678.01534 c -4.00745,-2.11068 -52.9375,-27.4407 -108.73345,-56.28895 C 168.11648,592.87815 100.14406,557.71915 72.862616,543.59527 l -49.602627,-25.67977 -0.141,-176.35981 -0.140999,-176.35981 4.932442,2.6233 c 2.712843,1.44281 23.895945,12.71196 47.073559,25.04256 l 42.141119,22.41927 0.008,77.75391 0.008,77.75391 1.26108,0.78255 c 1.5629,0.96985 147.77414,76.58976 148.08643,76.58976 0.12419,0 0.30579,-34.15444 0.40356,-75.89875 0.0978,-41.74431 0.34243,-76.06334 0.54371,-76.26451 0.32727,-0.32711 10.49011,4.97073 59.7458,31.14521 l 14.15225,7.52051 -0.12617,143.20307 c -0.14524,164.85946 -0.31291,204.02106 -0.87342,204.00079 -0.22099,-0.008 -3.68062,-1.74145 -7.68806,-3.85212 z"
     id="path3775"
     inkscape:connector-curvature="0"
     transform="matrix(0.74999998,0,0,0.74999998,-16.5,0)" />
  <path
     style="fill:#ccffaa;stroke-width:0.56048167"
     d="m 341.4948,295.42583 c 0.18861,-21.49408 0.41859,-39.14484 0.51109,-39.22392 0.39012,-0.33351 246.27538,-127.456 246.84337,-127.61784 0.87153,-0.24832 70.88907,36.1547 70.39724,36.60043 -0.32501,0.29454 -309.70402,165.0116 -316.18232,168.33922 l -1.91229,0.98225 z"
     id="path3777"
     inkscape:connector-curvature="0"
     transform="matrix(0.74999998,0,0,0.74999998,-16.5,0)" />
  <path
     style="fill:#ccffaa;stroke-width:0.56048167"
     d="m 342.36242,49.214564 c 0.11613,-26.728918 0.26692,-48.65962001 0.33508,-48.73489163 0.17481,-0.19305259 91.77835,47.37592163 92.36879,47.96636863 0.27254,0.272538 -18.47693,10.368461 -42.8409,23.068297 -23.82906,12.421014 -44.84398,23.419441 -46.69984,24.440958 l -3.37428,1.857302 z"
     id="path3779"
     inkscape:connector-curvature="0"
     transform="matrix(0.74999998,0,0,0.74999998,-16.5,0)" />
  <path
     style="fill:#e5ffd5;stroke-width:0.56048167"
     d="M 76.505747,193.36674 C 54.310673,181.49771 33.124466,170.20448 29.425287,168.27068 l -6.72578,-3.516 L 181.72346,82.689844 C 269.18664,37.554182 341.00675,0.53856386 341.3237,0.43291178 341.71622,0.30207285 341.85432,15.838876 341.75678,49.155446 l -0.14321,48.914631 -111.53585,58.247313 c -61.34472,32.03603 -111.91417,58.33329 -112.37657,58.43836 -0.4624,0.10507 -19.000329,-9.51999 -41.195403,-21.38901 z"
     id="path3781"
     inkscape:connector-curvature="0"
     transform="matrix(0.74999998,0,0,0.74999998,-16.5,0)" />
  <path
     style="fill:#e5ffd5;stroke-width:0.56048167"
     d="m 304.90203,315.01251 c -19.26656,-10.27766 -35.61925,-19.0364 -36.33931,-19.46386 -1.24017,-0.73622 0.63671,-1.7844 35.59058,-19.87641 l 36.89979,-19.09921 0.16329,36.24288 c 0.15457,34.3067 0.006,41.08997 -0.89823,40.94512 -0.21231,-0.034 -16.14957,-8.47085 -35.41612,-18.74852 z"
     id="path3783"
     inkscape:connector-curvature="0"
     transform="matrix(0.74999998,0,0,0.74999998,-16.5,0)" />
  <path
     style="fill:#e3f4d7;stroke-width:0.07006021"
     d="m 342.05677,85.979057 c 0.0254,-6.599966 0.0633,-20.780229 0.0842,-31.511702 0.0209,-10.731472 0.0516,-19.748221 0.0683,-20.037219 0.0166,-0.288998 0.0387,-5.948112 0.049,-12.575807 0.0103,-6.627696 0.0348,-14.2476644 0.0544,-16.9332626 l 0.0356,-4.88290639 5.34438,2.77297319 c 2.9394,1.5251352 5.32926,2.7880911 5.31078,2.8065687 -0.0185,0.018477 -1.72985,-0.8339287 -3.80306,-1.8942359 -2.0732,-1.0603072 -4.38423,-2.2329702 -5.13563,-2.6059177 l -1.36617,-0.6780864 -0.0466,1.9148772 c -0.13684,5.6178079 -0.57321,95.3087849 -0.46442,95.4545869 0.0369,0.04942 0.0146,0.09651 -0.0589,0.124728 -0.11064,0.04246 -0.11521,-0.716344 -0.0719,-11.954597 z"
     id="path3789"
     inkscape:connector-curvature="0"
     transform="matrix(0.74999998,0,0,0.74999998,-16.5,0)" />
</svg>
