<svg height="512pt" viewBox="-16 0 511 512" width="512pt" xmlns="http://www.w3.org/2000/svg"><path d="m240.21875 0-239.71875 123.703125v264.59375l239 123.703125 239-123.703125v-264.59375zm0 0" fill="#a8d3d8"/><path d="m240.21875 0-239.71875 123.703125 239 127.242187 239-127.242187zm0 0" fill="#deecf1"/><path d="m240.21875 0-.71875 250.945312 239-127.242187zm0 0" fill="#a8d3d8"/><path d="m239.5 250.945312v261.054688l239-123.703125v-264.59375zm0 0" fill="#8ebac5"/><path d="m239.5 250.945312-239-127.242187v264.59375l239 123.703125zm0 0" fill="#a8d3d8"/><path d="m310.472656 36.738281-239 124.75 112.058594 59.660157 241.632812-125.054688zm0 0" fill="#ffe07f"/><g fill="#ffd23a"><path d="m310.472656 36.738281-70.972656 37.046875v118.398438l185.664062-96.089844zm0 0"/><path d="m71.472656 161.488281v116.519531l112.058594 57.996094v-114.855468zm0 0"/></g></svg>