<?xml version="1.0" encoding="UTF-8" standalone="no"?>
<svg
   xmlns:dc="http://purl.org/dc/elements/1.1/"
   xmlns:cc="http://creativecommons.org/ns#"
   xmlns:rdf="http://www.w3.org/1999/02/22-rdf-syntax-ns#"
   xmlns:svg="http://www.w3.org/2000/svg"
   xmlns="http://www.w3.org/2000/svg"
   xmlns:sodipodi="http://sodipodi.sourceforge.net/DTD/sodipodi-0.dtd"
   xmlns:inkscape="http://www.inkscape.org/namespaces/inkscape"
   id="Capa_1"
   enable-background="new 0 0 515.556 515.556"
   height="512px"
   viewBox="0 0 515.556 515.556"
   width="512px"
   version="1.1"
   sodipodi:docname="disabled-dark.svg"
   inkscape:version="0.92.4 (5da689c313, 2019-01-14)">
  <metadata
     id="metadata11">
    <rdf:RDF>
      <cc:Work
         rdf:about="">
        <dc:format>image/svg+xml</dc:format>
        <dc:type
           rdf:resource="http://purl.org/dc/dcmitype/StillImage" />
      </cc:Work>
    </rdf:RDF>
  </metadata>
  <defs
     id="defs9" />
  <sodipodi:namedview
     pagecolor="#ffffff"
     bordercolor="#666666"
     borderopacity="1"
     objecttolerance="10"
     gridtolerance="10"
     guidetolerance="10"
     inkscape:pageopacity="0"
     inkscape:pageshadow="2"
     inkscape:window-width="1920"
     inkscape:window-height="1027"
     id="namedview7"
     showgrid="false"
     inkscape:zoom="0.4609375"
     inkscape:cx="-112.81356"
     inkscape:cy="256"
     inkscape:window-x="-8"
     inkscape:window-y="358"
     inkscape:window-maximized="1"
     inkscape:current-layer="Capa_1" />
  <g
     id="g4"
     style="fill:#b3b3c3;fill-opacity:1">
    <path
       d="m257.778 0c-142.137 0-257.778 115.641-257.778 257.778s115.641 257.778 257.778 257.778 257.778-115.641 257.778-257.778-115.642-257.778-257.778-257.778zm-193.334 257.778c0-41.69 13.397-80.235 35.924-111.846l269.255 269.255c-31.611 22.526-70.156 35.924-111.846 35.924-106.609 0-193.333-86.723-193.333-193.333zm350.743 111.846-269.256-269.256c31.611-22.526 70.156-35.924 111.846-35.924 106.61 0 193.333 86.723 193.333 193.333 0 41.691-13.397 80.236-35.923 111.847z"
       data-original="#000000"
       class="active-path"
       data-old_color="#000000"
       fill="#E3E9ED"
       id="path2"
       style="fill:#b3b3c3;fill-opacity:1" />
  </g>
</svg>
