<svg height="512pt" viewBox="0 0 512 512" width="512pt" xmlns="http://www.w3.org/2000/svg"><path d="m200 110h-100c-8.285156 0-15-6.714844-15-15v-60c0-19.300781 15.699219-35 35-35h60c19.300781 0 35 15.699219 35 35v60c0 8.285156-6.714844 15-15 15zm0 0" fill="#deecf1"/><path d="m95 512h-20c-41.355469 0-75-33.644531-75-75v-302c0-41.355469 33.644531-75 75-75h60c8.285156 0 15 6.714844 15 15v382c0 30.328125-24.671875 55-55 55zm0 0" fill="#cf957a"/><path d="m417 512h-212c-30.328125 0-55-24.671875-55-55v-382c0-8.285156 6.714844-15 15-15h252c52.382812 0 95 42.617188 95 95v262c0 52.382812-42.617188 95-95 95zm0 0" fill="#384949"/><path d="m417 60h-86v452h86c52.382812 0 95-42.617188 95-95v-262c0-52.382812-42.617188-95-95-95zm0 0" fill="#293939"/><path d="m331 452c-71.683594 0-130-58.316406-130-130s58.316406-130 130-130 130 58.316406 130 130-58.316406 130-130 130zm0 0" fill="#deecf1"/><path d="m331 192v260c71.683594 0 130-58.316406 130-130s-58.316406-130-130-130zm0 0" fill="#c5d3dd"/><path d="m254.5 150h-60c-8.285156 0-15-6.714844-15-15s6.714844-15 15-15h60c8.285156 0 15 6.714844 15 15s-6.714844 15-15 15zm0 0" fill="#fff"/><path d="m331 392c-38.597656 0-70-31.402344-70-70s31.402344-70 70-70 70 31.402344 70 70-31.402344 70-70 70zm0 0" fill="#a8ebfa"/><path d="m331 252v140c38.597656 0 70-31.402344 70-70s-31.402344-70-70-70zm0 0" fill="#66c0ee"/></svg>