<svg id="color" enable-background="new 0 0 24 24" height="512" viewBox="0 0 24 24" width="512" xmlns="http://www.w3.org/2000/svg"><path d="m21 22h-4.5c-.552 0-1-.448-1-1s.448-1 1-1h4.5c.551 0 1-.449 1-1v-14c0-.551-.449-1-1-1h-4.5c-.552 0-1-.448-1-1s.448-1 1-1h4.5c1.654 0 3 1.346 3 3v14c0 1.654-1.346 3-3 3z" fill="#607d8b"/><path d="m22.75 13h-6.25c-.552 0-1-.448-1-1s.448-1 1-1h6.25c.552 0 1 .448 1 1s-.448 1-1 1z" fill="#607d8b"/><path d="m22.999 12.969c-.08.02-.163.031-.249.031h-.75v6c0 .551-.449 1-1 1h-4.5c-.552 0-1 .448-1 1s.448 1 1 1h4.5c.767 0 1.468-.289 1.999-.765zm-1.999-10.969h-4.5c-.552 0-1 .448-1 1s.448 1 1 1h4.5c.551 0 1 .449 1 1v6h.75c.086 0 .169.011.249.031v-8.266c-.531-.476-1.232-.765-1.999-.765z" fill="#546d79"/><path d="m22.75 11h-.75-5.5c-.552 0-1 .448-1 1s.448 1 1 1h5.5.75c.086 0 .169-.011.249-.031v-1.937c-.08-.021-.163-.032-.249-.032z" fill="#546d79"/><path d="m15.25 24h-13.5c-.965 0-1.75-.785-1.75-1.75v-2.5c0-.965.785-1.75 1.75-1.75h13.5c.965 0 1.75.785 1.75 1.75v2.5c0 .965-.785 1.75-1.75 1.75z" fill="#2196f3"/><path d="m15.25 15h-13.5c-.965 0-1.75-.785-1.75-1.75v-2.5c0-.965.785-1.75 1.75-1.75h13.5c.965 0 1.75.785 1.75 1.75v2.5c0 .965-.785 1.75-1.75 1.75z" fill="#64b5f6"/><path d="m15.25 6h-13.5c-.965 0-1.75-.785-1.75-1.75v-2.5c0-.965.785-1.75 1.75-1.75h13.5c.965 0 1.75.785 1.75 1.75v2.5c0 .965-.785 1.75-1.75 1.75z" fill="#2196f3"/><path d="m8.75 18h-7c-.965 0-1.75.785-1.75 1.75v2.5c0 .965.785 1.75 1.75 1.75h7z" fill="#1d83d4"/><path d="m8.75 9h-7c-.965 0-1.75.785-1.75 1.75v2.5c0 .965.785 1.75 1.75 1.75h7z" fill="#579ed6"/><path d="m8.75 0h-7c-.965 0-1.75.785-1.75 1.75v2.5c0 .965.785 1.75 1.75 1.75h7z" fill="#1d83d4"/></svg>