<?xml version="1.0" encoding="UTF-8" standalone="no"?>
<svg
   xmlns:dc="http://purl.org/dc/elements/1.1/"
   xmlns:cc="http://creativecommons.org/ns#"
   xmlns:rdf="http://www.w3.org/1999/02/22-rdf-syntax-ns#"
   xmlns:svg="http://www.w3.org/2000/svg"
   xmlns="http://www.w3.org/2000/svg"
   xmlns:sodipodi="http://sodipodi.sourceforge.net/DTD/sodipodi-0.dtd"
   xmlns:inkscape="http://www.inkscape.org/namespaces/inkscape"
   height="512pt"
   viewBox="0 0 512 512"
   width="512pt"
   version="1.1"
   id="svg3831"
   sodipodi:docname="stepDisabled.svg"
   inkscape:version="0.92.4 (5da689c313, 2019-01-14)">
  <metadata
     id="metadata3837">
    <rdf:RDF>
      <cc:Work
         rdf:about="">
        <dc:format>image/svg+xml</dc:format>
        <dc:type
           rdf:resource="http://purl.org/dc/dcmitype/StillImage" />
      </cc:Work>
    </rdf:RDF>
  </metadata>
  <defs
     id="defs3835">
    <filter
       style="color-interpolation-filters:sRGB;"
       inkscape:label="Greyscale"
       id="filter4762">
      <feColorMatrix
         values="0.21 0.72 0.072 0 0 0.21 0.72 0.072 0 0 0.21 0.72 0.072 0 0 0 0 0 1 0 "
         id="feColorMatrix4760"
         result="fbSourceGraphic" />
      <feColorMatrix
         result="fbSourceGraphicAlpha"
         in="fbSourceGraphic"
         values="0 0 0 -1 0 0 0 0 -1 0 0 0 0 -1 0 0 0 0 1 0"
         id="feColorMatrix4792" />
      <feColorMatrix
         id="feColorMatrix4794"
         values="0.21 0.72 0.072 0 0 0.21 0.72 0.072 0 0 0.21 0.72 0.072 0 0 0 0 0 1 0 "
         in="fbSourceGraphic" />
    </filter>
    <filter
       style="color-interpolation-filters:sRGB;"
       inkscape:label="Greyscale"
       id="filter4766">
      <feColorMatrix
         values="0.21 0.72 0.072 0 0 0.21 0.72 0.072 0 0 0.21 0.72 0.072 0 0 0 0 0 1 0 "
         id="feColorMatrix4764"
         result="fbSourceGraphic" />
      <feColorMatrix
         result="fbSourceGraphicAlpha"
         in="fbSourceGraphic"
         values="0 0 0 -1 0 0 0 0 -1 0 0 0 0 -1 0 0 0 0 1 0"
         id="feColorMatrix4796" />
      <feColorMatrix
         id="feColorMatrix4798"
         values="0.21 0.72 0.072 0 0 0.21 0.72 0.072 0 0 0.21 0.72 0.072 0 0 0 0 0 1 0 "
         in="fbSourceGraphic" />
    </filter>
    <filter
       style="color-interpolation-filters:sRGB;"
       inkscape:label="Greyscale"
       id="filter4770">
      <feColorMatrix
         values="0.21 0.72 0.072 0 0 0.21 0.72 0.072 0 0 0.21 0.72 0.072 0 0 0 0 0 1 0 "
         id="feColorMatrix4768"
         result="fbSourceGraphic" />
      <feColorMatrix
         result="fbSourceGraphicAlpha"
         in="fbSourceGraphic"
         values="0 0 0 -1 0 0 0 0 -1 0 0 0 0 -1 0 0 0 0 1 0"
         id="feColorMatrix4800" />
      <feColorMatrix
         id="feColorMatrix4802"
         values="0.21 0.72 0.072 0 0 0.21 0.72 0.072 0 0 0.21 0.72 0.072 0 0 0 0 0 1 0 "
         in="fbSourceGraphic" />
    </filter>
    <filter
       style="color-interpolation-filters:sRGB;"
       inkscape:label="Greyscale"
       id="filter4774">
      <feColorMatrix
         values="0.21 0.72 0.072 0 0 0.21 0.72 0.072 0 0 0.21 0.72 0.072 0 0 0 0 0 1 0 "
         id="feColorMatrix4772"
         result="fbSourceGraphic" />
      <feColorMatrix
         result="fbSourceGraphicAlpha"
         in="fbSourceGraphic"
         values="0 0 0 -1 0 0 0 0 -1 0 0 0 0 -1 0 0 0 0 1 0"
         id="feColorMatrix4804" />
      <feColorMatrix
         id="feColorMatrix4806"
         values="0.21 0.72 0.072 0 0 0.21 0.72 0.072 0 0 0.21 0.72 0.072 0 0 0 0 0 1 0 "
         in="fbSourceGraphic" />
    </filter>
    <filter
       style="color-interpolation-filters:sRGB;"
       inkscape:label="Greyscale"
       id="filter4778">
      <feColorMatrix
         values="0.21 0.72 0.072 0 0 0.21 0.72 0.072 0 0 0.21 0.72 0.072 0 0 0 0 0 1 0 "
         id="feColorMatrix4776"
         result="fbSourceGraphic" />
      <feColorMatrix
         result="fbSourceGraphicAlpha"
         in="fbSourceGraphic"
         values="0 0 0 -1 0 0 0 0 -1 0 0 0 0 -1 0 0 0 0 1 0"
         id="feColorMatrix4808" />
      <feColorMatrix
         id="feColorMatrix4810"
         values="0.21 0.72 0.072 0 0 0.21 0.72 0.072 0 0 0.21 0.72 0.072 0 0 0 0 0 1 0 "
         in="fbSourceGraphic" />
    </filter>
    <filter
       style="color-interpolation-filters:sRGB;"
       inkscape:label="Greyscale"
       id="filter4782">
      <feColorMatrix
         values="0.21 0.72 0.072 0 0 0.21 0.72 0.072 0 0 0.21 0.72 0.072 0 0 0 0 0 1 0 "
         id="feColorMatrix4780"
         result="fbSourceGraphic" />
      <feColorMatrix
         result="fbSourceGraphicAlpha"
         in="fbSourceGraphic"
         values="0 0 0 -1 0 0 0 0 -1 0 0 0 0 -1 0 0 0 0 1 0"
         id="feColorMatrix4812" />
      <feColorMatrix
         id="feColorMatrix4814"
         values="0.21 0.72 0.072 0 0 0.21 0.72 0.072 0 0 0.21 0.72 0.072 0 0 0 0 0 1 0 "
         in="fbSourceGraphic" />
    </filter>
    <filter
       style="color-interpolation-filters:sRGB;"
       inkscape:label="Greyscale"
       id="filter4786">
      <feColorMatrix
         values="0.21 0.72 0.072 0 0 0.21 0.72 0.072 0 0 0.21 0.72 0.072 0 0 0 0 0 1 0 "
         id="feColorMatrix4784"
         result="fbSourceGraphic" />
      <feColorMatrix
         result="fbSourceGraphicAlpha"
         in="fbSourceGraphic"
         values="0 0 0 -1 0 0 0 0 -1 0 0 0 0 -1 0 0 0 0 1 0"
         id="feColorMatrix4816" />
      <feColorMatrix
         id="feColorMatrix4818"
         values="0.21 0.72 0.072 0 0 0.21 0.72 0.072 0 0 0.21 0.72 0.072 0 0 0 0 0 1 0 "
         in="fbSourceGraphic" />
    </filter>
    <filter
       style="color-interpolation-filters:sRGB;"
       inkscape:label="Greyscale"
       id="filter4790">
      <feColorMatrix
         values="0.21 0.72 0.072 0 0 0.21 0.72 0.072 0 0 0.21 0.72 0.072 0 0 0 0 0 1 0 "
         id="feColorMatrix4788"
         result="fbSourceGraphic" />
      <feColorMatrix
         result="fbSourceGraphicAlpha"
         in="fbSourceGraphic"
         values="0 0 0 -1 0 0 0 0 -1 0 0 0 0 -1 0 0 0 0 1 0"
         id="feColorMatrix4820" />
      <feColorMatrix
         id="feColorMatrix4822"
         values="0.21 0.72 0.072 0 0 0.21 0.72 0.072 0 0 0.21 0.72 0.072 0 0 0 0 0 1 0 "
         in="fbSourceGraphic" />
    </filter>
  </defs>
  <sodipodi:namedview
     pagecolor="#ffffff"
     bordercolor="#666666"
     borderopacity="1"
     objecttolerance="10"
     gridtolerance="10"
     guidetolerance="10"
     inkscape:pageopacity="0"
     inkscape:pageshadow="2"
     inkscape:window-width="2560"
     inkscape:window-height="1387"
     id="namedview3833"
     showgrid="false"
     inkscape:zoom="1.3828125"
     inkscape:cx="612.10358"
     inkscape:cy="401.03123"
     inkscape:window-x="-8"
     inkscape:window-y="-8"
     inkscape:window-maximized="1"
     inkscape:current-layer="svg3831" />
  <path
     d="m498.222656 198.242188-61.527344-6.285157c-2.222656-6.273437-4.777343-12.4375-7.640624-18.441406l39.066406-47.953125c4.96875-6.097656 4.515625-14.964844-1.046875-20.527344l-60.109375-60.109375c-5.558594-5.5625-14.429688-6.011719-20.527344-1.042969l-40.28125 32.816407c-4.59375 3.742187-10.960938 4.609375-16.636719 2.25l-.359375-.148438c-5.640625-2.332031-9.519531-7.4375-10.121094-13.332031l-5.28125-51.691406c-.796874-7.828125-7.386718-13.777344-15.253906-13.777344h-85.007812c-7.863282 0-14.457032 5.949219-15.253906 13.777344l-5.28125 51.691406c-.601563 5.894531-4.480469 11-10.152344 13.34375l-.34375.140625c-5.660156 2.351563-12.023438 1.484375-16.617188-2.253906l-40.285156-32.820313c-6.097656-4.964844-14.964844-4.515625-20.527344 1.046875l-60.109375 60.109375c-5.5625 5.5625-6.015625 14.429688-1.046875 20.527344l32.820313 40.285156c3.742187 4.59375 4.605469 10.960938 2.265625 16.59375l-.167969.398438c-2.328125 5.640625-7.4375 9.519531-13.332031 10.121094l-51.691406 5.28125c-7.820313.796874-13.773438 7.386718-13.773438 15.253906v85.007812c0 7.867188 5.953125 14.457032 13.777344 15.253906l51.691406 5.28125c5.890625.601563 11 4.480469 13.332031 10.132813l.152344.363281c2.351563 5.65625 1.484375 12.023438-2.257813 16.617188l-32.816406 40.285156c-4.96875 6.097656-4.515625 14.964844 1.046875 20.527344l60.109375 60.109375c5.5625 5.5625 14.429688 6.011719 20.527344 1.046875l40.28125-32.820313c4.59375-3.742187 10.960938-4.605469 16.617188-2.257812l.378906.15625c5.640625 2.332031 9.519531 7.4375 10.121094 13.332031l5.277343 51.691406c.800781 7.824219 7.390625 13.777344 15.253907 13.777344h85.011718c7.863282 0 14.453125-5.953125 15.253906-13.777344l5.277344-51.691406c.601563-5.894531 4.480469-11 10.132813-13.335938l.367187-.148437c5.65625-2.355469 12.023438-1.488281 16.617188 2.253906l40.285156 32.820313c6.09375 4.964844 14.964844 4.515625 20.527344-1.046875l60.109375-60.109375c5.558593-5.5625 6.011719-14.429688 1.042969-20.527344l-32.816407-40.285156c-3.742187-4.59375-4.605469-10.960938-2.25-16.636719l.148438-.355469c2.332031-5.640625 7.4375-9.519531 13.332031-10.121094l51.691406-5.28125c7.824219-.796874 13.773438-7.386718 13.773438-15.253906v-85.007812c.003906-7.867188-5.949219-14.457032-13.773438-15.253906zm0 0"
     fill="#1b3b6b"
     id="path3815"
     style="filter:url(#filter4762)" />
  <path
     d="m498.222656 198.242188-61.527344-6.285157c-2.222656-6.273437-4.777343-12.4375-7.640624-18.441406l39.066406-47.953125c4.96875-6.097656 4.515625-14.964844-1.046875-20.527344l-60.109375-60.109375c-5.558594-5.5625-14.429688-6.011719-20.527344-1.042969l-40.28125 32.816407c-4.59375 3.742187-10.960938 4.609375-16.636719 2.25l-.359375-.148438c-5.640625-2.332031-9.519531-7.4375-10.121094-13.332031l-5.28125-51.691406c-.796874-7.828125-7.386718-13.777344-15.253906-13.777344h-42.496094v512h42.496094c7.867188 0 14.457032-5.949219 15.253906-13.777344l5.28125-51.691406c.601563-5.890625 4.480469-11 10.132813-13.332031l.363281-.152344c5.65625-2.351563 12.023438-1.484375 16.617188 2.257813l40.285156 32.816406c6.097656 4.964844 14.964844 4.515625 20.527344-1.046875l60.109375-60.109375c5.5625-5.558594 6.015625-14.429688 1.046875-20.527344l-32.816406-40.285156c-3.742188-4.589844-4.609376-10.957032-2.25-16.632813l.148437-.359375c2.328125-5.640625 7.4375-9.519531 13.328125-10.121094l51.691406-5.277343c7.824219-.800781 13.777344-7.390625 13.777344-15.253907v-85.011718c0-7.867188-5.953125-14.457032-13.777344-15.253906zm0 0"
     fill="#001035"
     id="path3817"
     style="filter:url(#filter4766)" />
  <path
     d="m256.003906 360.78125c-57.773437 0-104.777344-47.003906-104.777344-104.777344 0-57.773437 47.003907-104.777344 104.777344-104.777344 57.773438 0 104.777344 47.003907 104.777344 104.777344 0 57.773438-47.003906 104.777344-104.777344 104.777344zm0 0"
     fill="#ffee6e"
     id="path3819"
     style="filter:url(#filter4770)" />
  <path
     d="m243.972656 298.910156c-3.921875 0-7.847656-1.496094-10.839844-4.492187l-31.085937-31.085938c-5.988281-5.988281-5.988281-15.695312 0-21.683593 5.984375-5.988282 15.695313-5.988282 21.683594 0l20.242187 20.242187 44.304688-44.300781c5.988281-5.988282 15.695312-5.988282 21.683594 0 5.988281 5.984375 5.988281 15.695312 0 21.683594l-55.144532 55.144531c-2.996094 2.992187-6.917968 4.492187-10.84375 4.492187zm0 0"
     fill="#06ccab"
     id="path3821"
     style="filter:url(#filter4774)" />
  <path
     d="m256.003906 378.511719c-67.550781 0-122.507812-54.957031-122.507812-122.507813 0-67.550781 54.957031-122.511718 122.507812-122.511718 67.550782 0 122.507813 54.960937 122.507813 122.511718 0 67.550782-54.957031 122.507813-122.507813 122.507813zm0-214.351563c-50.640625 0-91.839844 41.203125-91.839844 91.84375s41.199219 91.84375 91.839844 91.84375 91.84375-41.203125 91.84375-91.84375-41.203125-91.84375-91.84375-91.84375zm0 0"
     fill="#ffb64c"
     id="path3823"
     style="filter:url(#filter4778)" />
  <path
     d="m256.007812 151.226562v209.554688c57.773438 0 104.773438-47.003906 104.773438-104.777344 0-57.773437-47-104.777344-104.773438-104.777344zm0 0"
     fill="#fdbf00"
     id="path3825"
     style="filter:url(#filter4782)" />
  <path
     d="m256.007812 133.496094v30.664062c50.640626.003906 91.839844 41.203125 91.839844 91.84375s-41.199218 91.839844-91.839844 91.84375v30.667969c67.550782-.003906 122.503907-54.960937 122.503907-122.511719 0-67.550781-54.953125-122.507812-122.503907-122.507812zm0 0"
     fill="#ff9100"
     id="path3827"
     style="filter:url(#filter4786)" />
  <path
     d="m288.277344 217.589844-32.269532 32.269531v43.367187l53.953126-53.953124c5.988281-5.984376 5.988281-15.695313 0-21.683594-5.988282-5.988282-15.695313-5.988282-21.683594 0zm0 0"
     fill="#1cadb5"
     id="path3829"
     style="filter:url(#filter4790)" />
</svg>
